<?xml version="1.0" encoding="UTF-8"?>
<svg width="424px" height="424px" viewBox="0 0 424 424" version="1.1" xmlns="http://www.w3.org/2000/svg" xmlns:xlink="http://www.w3.org/1999/xlink">
    <!-- Generator: Sketch 48.2 (47327) - http://www.bohemiancoding.com/sketch -->
    <title>icons8-below</title>
    <desc>Created with Sketch.</desc>
    <defs>
        <polygon id="path-1" points="0.06 0.04 424 0.04 424 424 0.06 424"></polygon>
    </defs>
    <g id="Page-1" stroke="none" stroke-width="1" fill="none" fill-rule="evenodd">
        <g id="icons8-below">
            <g id="Group-4">
                <mask id="mask-2" fill="white">
                    <use xlink:href="#path-1"></use>
                </mask>
                <g id="Clip-2"></g>
                <path d="M412,212 C412,322.453 322.453,412 212,412 C101.547,412 12,322.453 12,212 C12,101.547 101.547,12 212,12 C322.453,12 412,101.547 412,212 Z" id="Fill-1" mask="url(#mask-2)"></path>
                <path d="M212,424 C95.203,424 0,328.797 0,212 C0,95.203 95.203,0 212,0 C328.797,0 424,95.203 424,212 C424,328.797 328.797,424 212,424 Z M212,24 C108.406,24 24,108.406 24,212 C24,315.594 108.406,400 212,400 C315.594,400 400,315.594 400,212 C400,108.406 315.594,24 212,24 Z" id="Fill-3" fill="#FFFFFF" mask="url(#mask-2)"></path>
            </g>
            <path d="M212,288 C205.203,288 200,282.797 200,276 L200,176 C200,169.203 205.203,164 212,164 C218.797,164 224,169.203 224,176 L224,276 C224,282.797 218.797,288 212,288 Z" id="Fill-5" fill="#FFFFFF"></path>
            <path d="M212,148 C211.203,148 210.406,148 209.594,147.594 C208.797,147.594 208,147.203 207.203,146.797 C206.406,146.406 206,146 205.203,145.594 C204.406,145.203 204,144.797 203.203,144 C202.797,143.594 202,142.797 201.594,142 C201.203,141.203 200.797,140.797 200.406,140 C200,139.203 200,138.406 199.594,137.594 C199.594,136.797 199.203,136 199.203,135.203 C199.203,132 200.406,128.797 202.797,126.797 C207.203,122.406 215.203,122.406 219.594,126.797 C222,129.203 223.203,132 223.203,135.203 C223.203,136 223.203,136.797 222.797,137.594 C222.797,138.406 222.406,139.203 222,140 C221.594,140.797 221.203,141.594 220.797,142 C220.406,142.797 220,143.203 219.203,144 C218.797,144.406 218,145.203 217.203,145.594 C216.406,146 216,146.406 215.203,146.797 C214.406,147.203 213.594,147.203 212.797,147.594 C213.594,148 212.797,148 212,148 Z" id="Fill-6" fill="#FFFFFF"></path>
            <path d="M212,288 C208.797,288 206,286.797 203.594,284.406 L163.594,244.406 C158.797,239.594 158.797,232 163.594,227.594 C168.406,222.797 176,222.797 180.406,227.594 L212,259.203 L243.594,227.594 C248.406,222.797 256,222.797 260.406,227.594 C265.203,232.406 265.203,240 260.406,244.406 L220.406,284.406 C218,286.797 215.203,288 212,288 Z" id="Fill-7" fill="#FFFFFF"></path>
        </g>
    </g>
</svg>